<mxfile host="65bd71144e">
    <diagram id="RE0Fzl9ccmViZdRQMi2L" name="Page-1">
        <mxGraphModel dx="974" dy="993" grid="1" gridSize="5" guides="1" tooltips="1" connect="1" arrows="1" fold="1" page="0" pageScale="1" pageWidth="850" pageHeight="1100" background="#ffffff" math="0" shadow="0">
            <root>
                <mxCell id="0"/>
                <mxCell id="1" parent="0"/>
                <mxCell id="2" value="Does the file match a pattern defined in the config file?" style="rounded=1;html=1;fontSize=10;fontStyle=0;whiteSpace=wrap;" vertex="1" parent="1">
                    <mxGeometry x="400" y="-80" width="100" height="60" as="geometry"/>
                </mxCell>
                <mxCell id="3" value="" style="ellipse;whiteSpace=wrap;html=1;aspect=fixed;" vertex="1" parent="1">
                    <mxGeometry x="440" y="-240" width="20" height="20" as="geometry"/>
                </mxCell>
                <mxCell id="4" value="" style="endArrow=blockThin;html=1;exitX=0.5;exitY=1;exitDx=0;exitDy=0;entryX=0.5;entryY=0;entryDx=0;entryDy=0;endFill=1;strokeWidth=0.5;" edge="1" parent="1" source="5" target="24">
                    <mxGeometry width="50" height="50" relative="1" as="geometry">
                        <mxPoint x="465" y="-10" as="sourcePoint"/>
                        <mxPoint x="515" y="-60" as="targetPoint"/>
                    </mxGeometry>
                </mxCell>
                <mxCell id="5" value="File opened in VSCode" style="rounded=0;html=1;fontSize=8;fontStyle=0;whiteSpace=wrap;strokeColor=none;fillColor=none;" vertex="1" parent="1">
                    <mxGeometry x="400" y="-218" width="100" height="10" as="geometry"/>
                </mxCell>
                <mxCell id="7" value="Is the corresponding form schema already in the cache?" style="rounded=1;html=1;fontSize=10;fontStyle=0;whiteSpace=wrap;" vertex="1" parent="1">
                    <mxGeometry x="400" y="20" width="100" height="60" as="geometry"/>
                </mxCell>
                <mxCell id="8" value="Is there a newer version of the form schema?" style="rounded=1;html=1;fontSize=10;fontStyle=0;whiteSpace=wrap;" vertex="1" parent="1">
                    <mxGeometry x="400" y="120" width="100" height="60" as="geometry"/>
                </mxCell>
                <mxCell id="10" value="Load the latest version of the form schema from GitHub and store it in the cache" style="rounded=1;html=1;fontSize=10;fontStyle=0;whiteSpace=wrap;" vertex="1" parent="1">
                    <mxGeometry x="500" y="220" width="100" height="60" as="geometry"/>
                </mxCell>
                <mxCell id="11" value="Instantiate a form after the form schema" style="rounded=1;html=1;fontSize=10;fontStyle=0;whiteSpace=wrap;" vertex="1" parent="1">
                    <mxGeometry x="400" y="320" width="100" height="60" as="geometry"/>
                </mxCell>
                <mxCell id="12" value="Edit the file in the form" style="rounded=1;html=1;fontSize=10;fontStyle=0;whiteSpace=wrap;" vertex="1" parent="1">
                    <mxGeometry x="400" y="420" width="100" height="60" as="geometry"/>
                </mxCell>
                <mxCell id="13" value="Edit the file in the regular VSCode text editor" style="rounded=1;html=1;fontSize=10;fontStyle=0;whiteSpace=wrap;" vertex="1" parent="1">
                    <mxGeometry x="600" y="420" width="100" height="60" as="geometry"/>
                </mxCell>
                <mxCell id="17" value="" style="endArrow=blockThin;html=1;exitX=1;exitY=0.5;exitDx=0;exitDy=0;entryX=0.5;entryY=0;entryDx=0;entryDy=0;endFill=1;strokeWidth=0.5;edgeStyle=orthogonalEdgeStyle;" edge="1" parent="1" source="2" target="13">
                    <mxGeometry width="50" height="50" relative="1" as="geometry">
                        <mxPoint x="460" y="-98" as="sourcePoint"/>
                        <mxPoint x="460" y="-70" as="targetPoint"/>
                    </mxGeometry>
                </mxCell>
                <mxCell id="41" value="&lt;font style=&quot;font-size: 8px;&quot;&gt;No&lt;/font&gt;" style="edgeLabel;html=1;align=center;verticalAlign=middle;resizable=0;points=[];" vertex="1" connectable="0" parent="17">
                    <mxGeometry x="-0.9022" y="1" relative="1" as="geometry">
                        <mxPoint as="offset"/>
                    </mxGeometry>
                </mxCell>
                <mxCell id="18" value="" style="endArrow=blockThin;html=1;exitX=1;exitY=0.5;exitDx=0;exitDy=0;entryX=0.5;entryY=0;entryDx=0;entryDy=0;endFill=1;strokeWidth=0.5;edgeStyle=orthogonalEdgeStyle;" edge="1" parent="1" source="7" target="10">
                    <mxGeometry width="50" height="50" relative="1" as="geometry">
                        <mxPoint x="505" y="-45" as="sourcePoint"/>
                        <mxPoint x="595" y="405" as="targetPoint"/>
                        <Array as="points">
                            <mxPoint x="550" y="50"/>
                        </Array>
                    </mxGeometry>
                </mxCell>
                <mxCell id="42" value="&lt;font style=&quot;font-size: 8px;&quot;&gt;No&lt;/font&gt;" style="edgeLabel;html=1;align=center;verticalAlign=middle;resizable=0;points=[];" vertex="1" connectable="0" parent="18">
                    <mxGeometry x="-0.7508" y="-1" relative="1" as="geometry">
                        <mxPoint y="-1" as="offset"/>
                    </mxGeometry>
                </mxCell>
                <mxCell id="20" value="" style="endArrow=blockThin;html=1;entryX=0.5;entryY=0;entryDx=0;entryDy=0;endFill=1;strokeWidth=0.5;exitX=1;exitY=0.5;exitDx=0;exitDy=0;edgeStyle=orthogonalEdgeStyle;" edge="1" parent="1" source="8" target="10">
                    <mxGeometry width="50" height="50" relative="1" as="geometry">
                        <mxPoint x="455" y="85" as="sourcePoint"/>
                        <mxPoint x="455" y="125" as="targetPoint"/>
                    </mxGeometry>
                </mxCell>
                <mxCell id="43" value="&lt;font style=&quot;font-size: 8px;&quot;&gt;Yes&lt;/font&gt;" style="edgeLabel;html=1;align=center;verticalAlign=middle;resizable=0;points=[];" vertex="1" connectable="0" parent="20">
                    <mxGeometry x="-0.6125" relative="1" as="geometry">
                        <mxPoint as="offset"/>
                    </mxGeometry>
                </mxCell>
                <mxCell id="22" value="" style="endArrow=blockThin;html=1;entryX=0.5;entryY=0;entryDx=0;entryDy=0;endFill=1;strokeWidth=0.5;exitX=0.5;exitY=1;exitDx=0;exitDy=0;edgeStyle=orthogonalEdgeStyle;" edge="1" parent="1" source="13" target="29">
                    <mxGeometry width="50" height="50" relative="1" as="geometry">
                        <mxPoint x="455" y="185" as="sourcePoint"/>
                        <mxPoint x="545" y="225" as="targetPoint"/>
                    </mxGeometry>
                </mxCell>
                <mxCell id="24" value="Is there a config file in the current VSCode workspace?" style="rounded=1;html=1;fontSize=10;fontStyle=0;whiteSpace=wrap;" vertex="1" parent="1">
                    <mxGeometry x="400" y="-180" width="100" height="60" as="geometry"/>
                </mxCell>
                <mxCell id="26" value="" style="endArrow=blockThin;html=1;entryX=0.5;entryY=0;entryDx=0;entryDy=0;endFill=1;strokeWidth=0.5;exitX=0.5;exitY=1;exitDx=0;exitDy=0;" edge="1" parent="1" source="24" target="2">
                    <mxGeometry width="50" height="50" relative="1" as="geometry">
                        <mxPoint x="455" y="-15" as="sourcePoint"/>
                        <mxPoint x="455" y="25" as="targetPoint"/>
                    </mxGeometry>
                </mxCell>
                <mxCell id="27" value="Yes" style="edgeLabel;html=1;align=center;verticalAlign=middle;resizable=0;points=[];fontSize=8;" vertex="1" connectable="0" parent="26">
                    <mxGeometry x="-0.0538" y="1" relative="1" as="geometry">
                        <mxPoint x="-1" as="offset"/>
                    </mxGeometry>
                </mxCell>
                <mxCell id="28" value="" style="endArrow=blockThin;html=1;exitX=1;exitY=0.5;exitDx=0;exitDy=0;entryX=0.5;entryY=0;entryDx=0;entryDy=0;endFill=1;strokeWidth=0.5;edgeStyle=orthogonalEdgeStyle;" edge="1" parent="1" source="24" target="13">
                    <mxGeometry width="50" height="50" relative="1" as="geometry">
                        <mxPoint x="505" y="-45" as="sourcePoint"/>
                        <mxPoint x="655" y="425" as="targetPoint"/>
                    </mxGeometry>
                </mxCell>
                <mxCell id="40" value="&lt;font style=&quot;font-size: 8px;&quot;&gt;No&lt;/font&gt;" style="edgeLabel;html=1;align=center;verticalAlign=middle;resizable=0;points=[];" vertex="1" connectable="0" parent="28">
                    <mxGeometry x="-0.9157" relative="1" as="geometry">
                        <mxPoint as="offset"/>
                    </mxGeometry>
                </mxCell>
                <mxCell id="29" value="" style="ellipse;whiteSpace=wrap;html=1;aspect=fixed;strokeWidth=2.5;" vertex="1" parent="1">
                    <mxGeometry x="440" y="520" width="20" height="20" as="geometry"/>
                </mxCell>
                <mxCell id="30" value="" style="endArrow=blockThin;html=1;endFill=1;strokeWidth=0.5;entryX=0.5;entryY=0;entryDx=0;entryDy=0;exitX=0.5;exitY=1;exitDx=0;exitDy=0;" edge="1" parent="1" source="11" target="12">
                    <mxGeometry width="50" height="50" relative="1" as="geometry">
                        <mxPoint x="455" y="370" as="sourcePoint"/>
                        <mxPoint x="455" y="325" as="targetPoint"/>
                    </mxGeometry>
                </mxCell>
                <mxCell id="31" value="" style="endArrow=blockThin;html=1;endFill=1;strokeWidth=0.5;entryX=0.5;entryY=0;entryDx=0;entryDy=0;exitX=0.5;exitY=1;exitDx=0;exitDy=0;" edge="1" parent="1" source="12" target="29">
                    <mxGeometry width="50" height="50" relative="1" as="geometry">
                        <mxPoint x="455" y="385" as="sourcePoint"/>
                        <mxPoint x="455" y="425" as="targetPoint"/>
                    </mxGeometry>
                </mxCell>
                <mxCell id="32" value="" style="endArrow=blockThin;html=1;endFill=1;strokeWidth=0.5;edgeStyle=orthogonalEdgeStyle;exitX=0.5;exitY=1;exitDx=0;exitDy=0;entryX=0.5;entryY=0;entryDx=0;entryDy=0;" edge="1" parent="1" source="10" target="11">
                    <mxGeometry width="50" height="50" relative="1" as="geometry">
                        <mxPoint x="555" y="285" as="sourcePoint"/>
                        <mxPoint x="450" y="315" as="targetPoint"/>
                    </mxGeometry>
                </mxCell>
                <mxCell id="34" value="" style="endArrow=blockThin;html=1;entryX=0.5;entryY=0;entryDx=0;entryDy=0;endFill=1;strokeWidth=0.5;exitX=0.5;exitY=1;exitDx=0;exitDy=0;" edge="1" parent="1" source="2" target="7">
                    <mxGeometry width="50" height="50" relative="1" as="geometry">
                        <mxPoint x="449.79" y="-20" as="sourcePoint"/>
                        <mxPoint x="449.79" y="20" as="targetPoint"/>
                    </mxGeometry>
                </mxCell>
                <mxCell id="35" value="Yes" style="edgeLabel;html=1;align=center;verticalAlign=middle;resizable=0;points=[];fontSize=8;" vertex="1" connectable="0" parent="34">
                    <mxGeometry x="-0.0538" y="1" relative="1" as="geometry">
                        <mxPoint x="-1" as="offset"/>
                    </mxGeometry>
                </mxCell>
                <mxCell id="36" value="" style="endArrow=blockThin;html=1;entryX=0.5;entryY=0;entryDx=0;entryDy=0;endFill=1;strokeWidth=0.5;exitX=0.5;exitY=1;exitDx=0;exitDy=0;" edge="1" parent="1" source="7" target="8">
                    <mxGeometry width="50" height="50" relative="1" as="geometry">
                        <mxPoint x="449.79" y="80" as="sourcePoint"/>
                        <mxPoint x="449.79" y="120" as="targetPoint"/>
                    </mxGeometry>
                </mxCell>
                <mxCell id="37" value="Yes" style="edgeLabel;html=1;align=center;verticalAlign=middle;resizable=0;points=[];fontSize=8;" vertex="1" connectable="0" parent="36">
                    <mxGeometry x="-0.0538" y="1" relative="1" as="geometry">
                        <mxPoint x="-1" as="offset"/>
                    </mxGeometry>
                </mxCell>
                <mxCell id="38" value="" style="endArrow=blockThin;html=1;entryX=0.5;entryY=0;entryDx=0;entryDy=0;endFill=1;strokeWidth=0.5;exitX=0.5;exitY=1;exitDx=0;exitDy=0;" edge="1" parent="1" source="8" target="11">
                    <mxGeometry width="50" height="50" relative="1" as="geometry">
                        <mxPoint x="449.79" y="180" as="sourcePoint"/>
                        <mxPoint x="449.79" y="220" as="targetPoint"/>
                    </mxGeometry>
                </mxCell>
                <mxCell id="39" value="No" style="edgeLabel;html=1;align=center;verticalAlign=middle;resizable=0;points=[];fontSize=8;" vertex="1" connectable="0" parent="38">
                    <mxGeometry x="-0.0538" y="1" relative="1" as="geometry">
                        <mxPoint x="-1" y="-46" as="offset"/>
                    </mxGeometry>
                </mxCell>
                <mxCell id="44" value="" style="shape=cylinder3;whiteSpace=wrap;html=1;boundedLbl=1;backgroundOutline=1;size=7.60003662109375;" vertex="1" parent="1">
                    <mxGeometry x="127.5" y="190" width="40" height="40" as="geometry"/>
                </mxCell>
                <mxCell id="45" value="GitHub" style="rounded=0;html=1;fontSize=8;fontStyle=0;whiteSpace=wrap;strokeColor=none;fillColor=none;" vertex="1" parent="1">
                    <mxGeometry x="97.5" y="235" width="100" height="10" as="geometry"/>
                </mxCell>
                <mxCell id="46" value="" style="dashed=0;outlineConnect=0;html=1;align=center;labelPosition=center;verticalLabelPosition=bottom;verticalAlign=top;shape=mxgraph.weblogos.github" vertex="1" parent="1">
                    <mxGeometry x="140" y="210" width="15" height="15" as="geometry"/>
                </mxCell>
                <mxCell id="47" value="" style="shape=folder;fontStyle=1;tabWidth=15;tabHeight=5;tabPosition=left;html=1;boundedLbl=1;whiteSpace=wrap;" vertex="1" parent="1">
                    <mxGeometry x="115" y="-35" width="30" height="20" as="geometry"/>
                </mxCell>
                <mxCell id="48" value="" style="shape=note;whiteSpace=wrap;html=1;backgroundOutline=1;darkOpacity=0.05;size=5;" vertex="1" parent="1">
                    <mxGeometry x="140" y="5" width="15" height="20" as="geometry"/>
                </mxCell>
                <mxCell id="49" value="&lt;font face=&quot;Courier New&quot;&gt;yard58-form-editor.config.json&lt;/font&gt;" style="rounded=0;html=1;fontSize=8;fontStyle=0;whiteSpace=wrap;strokeColor=none;fillColor=none;align=left;" vertex="1" parent="1">
                    <mxGeometry x="160" y="5" width="150" height="20" as="geometry"/>
                </mxCell>
                <mxCell id="51" value="VSCode workspace" style="rounded=0;html=1;fontSize=8;fontStyle=0;whiteSpace=wrap;strokeColor=none;fillColor=none;align=left;" vertex="1" parent="1">
                    <mxGeometry x="155" y="-35" width="100" height="20" as="geometry"/>
                </mxCell>
                <mxCell id="52" value="" style="endArrow=none;html=1;entryX=0;entryY=0.5;entryDx=0;entryDy=0;endFill=0;strokeWidth=0.5;exitX=0.5;exitY=1;exitDx=0;exitDy=0;exitPerimeter=0;entryPerimeter=0;edgeStyle=orthogonalEdgeStyle;rounded=0;curved=0;" edge="1" parent="1" source="47" target="48">
                    <mxGeometry width="50" height="50" relative="1" as="geometry">
                        <mxPoint x="430" y="50" as="sourcePoint"/>
                        <mxPoint x="430" y="90" as="targetPoint"/>
                    </mxGeometry>
                </mxCell>
                <mxCell id="54" value="" style="endArrow=none;html=1;entryX=0;entryY=0;entryDx=0;entryDy=12.5;endFill=0;strokeWidth=0.5;entryPerimeter=0;edgeStyle=orthogonalEdgeStyle;rounded=0;curved=0;exitX=0.5;exitY=1;exitDx=0;exitDy=0;exitPerimeter=0;" edge="1" parent="1" source="47" target="56">
                    <mxGeometry width="50" height="50" relative="1" as="geometry">
                        <mxPoint x="135" y="-10" as="sourcePoint"/>
                        <mxPoint x="145" y="20" as="targetPoint"/>
                    </mxGeometry>
                </mxCell>
                <mxCell id="56" value="" style="shape=folder;fontStyle=1;tabWidth=15;tabHeight=5;tabPosition=left;html=1;boundedLbl=1;whiteSpace=wrap;" vertex="1" parent="1">
                    <mxGeometry x="140" y="45" width="30" height="20" as="geometry"/>
                </mxCell>
                <mxCell id="57" value="&lt;font face=&quot;Courier New&quot;&gt;.yard58-form-editor-schemas&lt;/font&gt;" style="rounded=0;html=1;fontSize=8;fontStyle=0;whiteSpace=wrap;strokeColor=none;fillColor=none;align=left;" vertex="1" parent="1">
                    <mxGeometry x="175" y="45" width="135" height="20" as="geometry"/>
                </mxCell>
                <mxCell id="58" value="" style="endArrow=open;html=1;endFill=0;strokeWidth=0.5;edgeStyle=orthogonalEdgeStyle;exitX=1;exitY=0.5;exitDx=0;exitDy=0;entryX=0;entryY=0.5;entryDx=0;entryDy=0;dashed=1;dashPattern=8 8;" edge="1" parent="1" source="49" target="2">
                    <mxGeometry width="50" height="50" relative="1" as="geometry">
                        <mxPoint x="555" y="285" as="sourcePoint"/>
                        <mxPoint x="455" y="325" as="targetPoint"/>
                        <Array as="points">
                            <mxPoint x="340" y="15"/>
                            <mxPoint x="340" y="-50"/>
                        </Array>
                    </mxGeometry>
                </mxCell>
                <mxCell id="59" value="" style="endArrow=open;html=1;endFill=0;strokeWidth=0.5;edgeStyle=orthogonalEdgeStyle;exitX=1;exitY=0.5;exitDx=0;exitDy=0;entryX=0;entryY=0.5;entryDx=0;entryDy=0;dashed=1;dashPattern=8 8;" edge="1" parent="1" source="49" target="24">
                    <mxGeometry width="50" height="50" relative="1" as="geometry">
                        <mxPoint x="260" y="95" as="sourcePoint"/>
                        <mxPoint x="405" y="-45" as="targetPoint"/>
                        <Array as="points">
                            <mxPoint x="340" y="15"/>
                            <mxPoint x="340" y="-150"/>
                        </Array>
                    </mxGeometry>
                </mxCell>
                <mxCell id="60" value="" style="endArrow=open;html=1;endFill=0;strokeWidth=0.5;edgeStyle=orthogonalEdgeStyle;exitX=1;exitY=0.25;exitDx=0;exitDy=0;dashed=1;dashPattern=8 8;entryX=0;entryY=0.5;entryDx=0;entryDy=0;" edge="1" parent="1" source="57" target="7">
                    <mxGeometry width="50" height="50" relative="1" as="geometry">
                        <mxPoint x="260" y="95" as="sourcePoint"/>
                        <mxPoint x="380" y="45" as="targetPoint"/>
                    </mxGeometry>
                </mxCell>
                <mxCell id="61" value="" style="endArrow=open;html=1;endFill=0;strokeWidth=0.5;edgeStyle=orthogonalEdgeStyle;exitX=1;exitY=0.5;exitDx=0;exitDy=0;dashed=1;dashPattern=8 8;entryX=0;entryY=0.5;entryDx=0;entryDy=0;exitPerimeter=0;jumpStyle=gap;jumpSize=20;" edge="1" parent="1" source="44" target="8">
                    <mxGeometry width="50" height="50" relative="1" as="geometry">
                        <mxPoint x="260" y="130" as="sourcePoint"/>
                        <mxPoint x="405" y="55" as="targetPoint"/>
                        <Array as="points">
                            <mxPoint x="260" y="210"/>
                            <mxPoint x="260" y="150"/>
                        </Array>
                    </mxGeometry>
                </mxCell>
                <mxCell id="62" value="" style="endArrow=open;html=1;endFill=0;strokeWidth=0.5;edgeStyle=orthogonalEdgeStyle;exitX=1;exitY=0.5;exitDx=0;exitDy=0;dashed=1;dashPattern=8 8;entryX=0;entryY=0.75;entryDx=0;entryDy=0;exitPerimeter=0;jumpStyle=gap;jumpSize=20;" edge="1" parent="1" source="44" target="10">
                    <mxGeometry width="50" height="50" relative="1" as="geometry">
                        <mxPoint x="118" y="235" as="sourcePoint"/>
                        <mxPoint x="405" y="155" as="targetPoint"/>
                        <Array as="points">
                            <mxPoint x="260" y="210"/>
                            <mxPoint x="260" y="265"/>
                        </Array>
                    </mxGeometry>
                </mxCell>
                <mxCell id="63" value="" style="endArrow=open;html=1;endFill=0;strokeWidth=0.5;edgeStyle=orthogonalEdgeStyle;exitX=0;exitY=0.25;exitDx=0;exitDy=0;dashed=1;dashPattern=8 8;entryX=1;entryY=0.75;entryDx=0;entryDy=0;jumpStyle=gap;jumpSize=20;" edge="1" parent="1" source="10" target="57">
                    <mxGeometry width="50" height="50" relative="1" as="geometry">
                        <mxPoint x="118" y="235" as="sourcePoint"/>
                        <mxPoint x="505" y="240" as="targetPoint"/>
                        <Array as="points">
                            <mxPoint x="340" y="235"/>
                            <mxPoint x="340" y="60"/>
                        </Array>
                    </mxGeometry>
                </mxCell>
                <mxCell id="66" value="" style="shape=note;whiteSpace=wrap;html=1;backgroundOutline=1;darkOpacity=0.05;size=5;" vertex="1" parent="1">
                    <mxGeometry x="302" y="255" width="15" height="20" as="geometry"/>
                </mxCell>
                <mxCell id="67" value="&lt;font face=&quot;Courier New&quot;&gt;&amp;lt;form schema&amp;gt;&lt;/font&gt;" style="rounded=0;html=1;fontSize=8;fontStyle=0;whiteSpace=wrap;strokeColor=none;fillColor=none;align=center;" vertex="1" parent="1">
                    <mxGeometry x="234.5" y="275" width="150" height="20" as="geometry"/>
                </mxCell>
            </root>
        </mxGraphModel>
    </diagram>
</mxfile>